  0
SECTION
  2
HEADER
  9
$ACADVER
  1
AC1009
  9
$DWGCODEPAGE
  3
ansi_1252
  9
$INSBASE
 10
0.0
 20
0.0
 30
0.0
  9
$EXTMIN
 10
-2.0
 20
-2.0
 30
0.0
  9
$EXTMAX
 10
2.0
 20
2.0
 30
0.0
  9
$LIMMIN
 10
0.0
 20
0.0
  9
$LIMMAX
 10
12.0
 20
9.0
  9
$ORTHOMODE
 70
     0
  9
$REGENMODE
 70
     1
  9
$FILLMODE
 70
     1
  9
$QTEXTMODE
 70
     0
  9
$MIRRTEXT
 70
     1
  9
$DRAGMODE
 70
     2
  9
$LTSCALE
 40
1.0
  9
$OSMODE
 70
    37
  9
$ATTMODE
 70
     1
  9
$TEXTSIZE
 40
0.1377952756
  9
$TRACEWID
 40
0.05
  9
$TEXTSTYLE
  7
STANDARD
  9
$CLAYER
  8
0
  9
$CELTYPE
  6
BYLAYER
  9
$CECOLOR
 62
   256
  9
$DIMSCALE
 40
1.0
  9
$DIMASZ
 40
0.14
  9
$DIMEXO
 40
0.0393700787
  9
$DIMDLI
 40
0.38
  9
$DIMRND
 40
0.0
  9
$DIMDLE
 40
0.0
  9
$DIMEXE
 40
0.0393700787
  9
$DIMTP
 40
0.0
  9
$DIMTM
 40
0.0
  9
$DIMTXT
 40
0.1377952756
  9
$DIMCEN
 40
0.09
  9
$DIMTSZ
 40
0.0
  9
$DIMTOL
 70
     0
  9
$DIMLIM
 70
     0
  9
$DIMTIH
 70
     1
  9
$DIMTOH
 70
     1
  9
$DIMSE1
 70
     0
  9
$DIMSE2
 70
     0
  9
$DIMTAD
 70
     1
  9
$DIMZIN
 70
     1
  9
$DIMBLK
  1

  9
$DIMASO
 70
     1
  9
$DIMSHO
 70
     1
  9
$DIMPOST
  1

  9
$DIMAPOST
  1

  9
$DIMALT
 70
     0
  9
$DIMALTD
 70
     2
  9
$DIMALTF
 40
25.4
  9
$DIMLFAC
 40
1.0
  9
$DIMTOFL
 70
     0
  9
$DIMTVP
 40
0.0
  9
$DIMTIX
 70
     0
  9
$DIMSOXD
 70
     0
  9
$DIMSAH
 70
     0
  9
$DIMBLK1
  1

  9
$DIMBLK2
  1

  9
$DIMSTYLE
  2
STANDARD
  9
$DIMCLRD
 70
     0
  9
$DIMCLRE
 70
     0
  9
$DIMCLRT
 70
     0
  9
$DIMTFAC
 40
1.0
  9
$DIMGAP
 40
0.06
  9
$LUNITS
 70
     2
  9
$LUPREC
 70
     2
  9
$SKETCHINC
 40
0.1
  9
$FILLETRAD
 40
0.5
  9
$AUNITS
 70
     0
  9
$AUPREC
 70
     2
  9
$MENU
  1
.
  9
$ELEVATION
 40
0.0
  9
$PELEVATION
 40
0.0
  9
$THICKNESS
 40
0.0
  9
$LIMCHECK
 70
     0
  9
$CHAMFERA
 40
0.0
  9
$CHAMFERB
 40
0.0
  9
$SKPOLY
 70
     0
  9
$TDCREATE
 40
2458436.488367755
  9
$TDUPDATE
 40
2458436.488415116
  9
$TDINDWG
 40
0.0000000116
  9
$TDUSRTIMER
 40
0.0000000116
  9
$USRTIMER
 70
     1
  9
$ANGBASE
 50
0.0
  9
$ANGDIR
 70
     0
  9
$PDMODE
 70
     0
  9
$PDSIZE
 40
-1.0
  9
$PLINEWID
 40
0.0
  9
$COORDS
 70
     1
  9
$SPLFRAME
 70
     0
  9
$SPLINETYPE
 70
     6
  9
$SPLINESEGS
 70
     8
  9
$ATTDIA
 70
     0
  9
$ATTREQ
 70
     1
  9
$HANDLING
 70
     1
  9
$HANDSEED
  5
AC
  9
$SURFTAB1
 70
     6
  9
$SURFTAB2
 70
     6
  9
$SURFTYPE
 70
     6
  9
$SURFU
 70
     6
  9
$SURFV
 70
     6
  9
$UCSNAME
  2

  9
$UCSORG
 10
0.0
 20
0.0
 30
0.0
  9
$UCSXDIR
 10
1.0
 20
0.0
 30
0.0
  9
$UCSYDIR
 10
0.0
 20
1.0
 30
0.0
  9
$PUCSNAME
  2

  9
$PUCSORG
 10
0.0
 20
0.0
 30
0.0
  9
$PUCSXDIR
 10
1.0
 20
0.0
 30
0.0
  9
$PUCSYDIR
 10
0.0
 20
1.0
 30
0.0
  9
$USERI1
 70
     0
  9
$USERI2
 70
     0
  9
$USERI3
 70
     0
  9
$USERI4
 70
     0
  9
$USERI5
 70
     0
  9
$USERR1
 40
0.0
  9
$USERR2
 40
0.0
  9
$USERR3
 40
0.0
  9
$USERR4
 40
0.0
  9
$USERR5
 40
0.0
  9
$WORLDVIEW
 70
     1
  9
$SHADEDGE
 70
     3
  9
$SHADEDIF
 70
    70
  9
$TILEMODE
 70
     1
  9
$MAXACTVP
 70
    64
  9
$PLIMCHECK
 70
     0
  9
$PEXTMIN
 10
1.0000000000E+20
 20
1.0000000000E+20
 30
1.0000000000E+20
  9
$PEXTMAX
 10
-1.0000000000E+20
 20
-1.0000000000E+20
 30
-1.0000000000E+20
  9
$PLIMMIN
 10
0.0
 20
0.0
  9
$PLIMMAX
 10
12.0
 20
9.0
  9
$UNITMODE
 70
     0
  9
$VISRETAIN
 70
     1
  9
$PLINEGEN
 70
     0
  9
$PSLTSCALE
 70
     1
  0
ENDSEC
  0
SECTION
  2
TABLES
  0
TABLE
  2
VPORT
 70
     1
  0
VPORT
  2
*ACTIVE
 70
     0
 10
0.0
 20
0.0
 11
1.0
 21
1.0
 12
0.0
 22
0.0
 13
0.0
 23
0.0
 14
0.5
 24
0.5
 15
0.5
 25
0.5
 16
0.0
 26
0.0
 36
1.0
 17
0.0
 27
0.0
 37
0.0
 40
4.08
 41
1.0
 42
50.0
 43
0.0
 44
0.0
 50
0.0
 51
0.0
 71
     0
 72
   100
 73
     1
 74
     3
 75
     0
 76
     0
 77
     0
 78
     0
  0
ENDTAB
  0
TABLE
  2
LTYPE
 70
     6
  0
LTYPE
  2
CONTINUOUS
 70
     0
  3
Solid line
 72
    65
 73
     0
 40
0.0
  0
LTYPE
  2
HIDDEN
 70
     0
  3
Hidden __ __ __ __ __ __ __ __ __ __ __ __ __ __
 72
    65
 73
     2
 40
0.075
 49
0.05
 49
-0.025
  0
LTYPE
  2
PHANTOM
 70
     0
  3
Phantom ______  __  __  ______  __  __  ______
 72
    65
 73
     6
 40
0.5
 49
0.25
 49
-0.05
 49
0.05
 49
-0.05
 49
0.05
 49
-0.05
  0
LTYPE
  2
CENTER
 70
     0
  3
Center ____ _ ____ _ ____ _ ____ _ ____ _ ____
 72
    65
 73
     4
 40
0.4
 49
0.25
 49
-0.05
 49
0.05
 49
-0.05
  0
LTYPE
  2
CENTERX2
 70
     0
  3
Center (2x) ________  __  ________  __  _____
 72
    65
 73
     4
 40
0.8
 49
0.5
 49
-0.1
 49
0.1
 49
-0.1
  0
LTYPE
  2
DOT2
 70
     0
  3
Dot (.5x) ........................................
 72
    65
 73
     2
 40
0.025
 49
0.0
 49
-0.025
  0
ENDTAB
  0
TABLE
  2
LAYER
 70
     1
  0
LAYER
  2
0
 70
     0
 62
     7
  6
CONTINUOUS
  0
ENDTAB
  0
TABLE
  2
STYLE
 70
     1
  0
STYLE
  2
STANDARD
 70
     0
 40
0.0
 41
1.0
 50
0.0
 71
     0
 42
0.1377952756
  3
txt
  4

  0
ENDTAB
  0
TABLE
  2
VIEW
 70
     0
  0
ENDTAB
  0
TABLE
  2
UCS
 70
     0
  0
ENDTAB
  0
TABLE
  2
APPID
 70
     1
  0
APPID
  2
ACAD
 70
     0
  0
ENDTAB
  0
TABLE
  2
DIMSTYLE
 70
     1
  0
DIMSTYLE
  2
STANDARD
 70
     0
  3

  4

  5

  6

  7

 40
1.0
 41
0.18
 42
0.0625
 43
0.38
 44
0.18
 45
0.0
 46
0.0
 47
0.0
 48
0.0
140
0.18
141
0.09
142
0.0
143
25.4
144
1.0
145
0.0
146
1.0
147
0.09
 71
     0
 72
     0
 73
     1
 74
     1
 75
     0
 76
     0
 77
     0
 78
     0
170
     0
171
     2
172
     0
173
     0
174
     0
175
     0
176
     0
177
     0
178
     0
  0
ENDTAB
  0
ENDSEC
  0
SECTION
  2
BLOCKS
  0
BLOCK
  8
0
  2
$MODEL_SPACE
 70
     0
 10
0.0
 20
0.0
 30
0.0
  3
$MODEL_SPACE
  1

  0
ENDBLK
  5
21
  8
0
  0
BLOCK
 67
     1
  8
0
  2
$PAPER_SPACE
 70
     0
 10
0.0
 20
0.0
 30
0.0
  3
$PAPER_SPACE
  1

  0
ENDBLK
  5
1D
 67
     1
  8
0
  0
ENDSEC
  0
SECTION
  2
ENTITIES
  0
CIRCLE
  5
73
  8
0
  6
CONTINUOUS
 62
     7
 10
0.0
 20
0.0
 30
0.0
 40
0.4500000000000001
  0
CIRCLE
  5
74
  8
0
  6
CONTINUOUS
 62
     7
 10
0.4527559055
 20
-0.4527559055
 30
0.0
 40
0.0531496062992126
  0
CIRCLE
  5
75
  8
0
  6
CONTINUOUS
 62
     7
 10
-0.4527559055
 20
0.4527559055
 30
0.0
 40
0.0531496062992125
  0
CIRCLE
  5
76
  8
0
  6
CONTINUOUS
 62
     7
 10
-0.4527559055
 20
-0.4527559055
 30
0.0
 40
0.0531496062992125
  0
CIRCLE
  5
77
  8
0
  6
CONTINUOUS
 62
     7
 10
0.4527559055
 20
0.4527559055
 30
0.0
 40
0.0531496062992126
  0
CIRCLE
  5
78
  8
0
  6
CONTINUOUS
 62
     7
 10
-1.5
 20
0.8660254038
 30
0.0
 40
0.0720000000000007
  0
CIRCLE
  5
79
  8
0
  6
CONTINUOUS
 62
     7
 10
1.5
 20
0.8660254038
 30
0.0
 40
0.0719999999999998
  0
CIRCLE
  5
7A
  8
0
  6
CONTINUOUS
 62
     7
 10
0.0
 20
-1.7320508076
 30
0.0
 40
0.072
  0
CIRCLE
  5
93
  8
0
  6
CONTINUOUS
 62
     7
 10
0.0
 20
0.0
 30
0.0
 40
1.999999999999998
  0
LINE
  5
94
  8
0
  6
CONTINUOUS
 62
     7
 10
-0.7905821502
 20
1.1180249835
 30
0.0
 11
-0.6455076226
 21
0.9128635764
 31
0.0
  0
LINE
  5
95
  8
0
  6
CONTINUOUS
 62
     7
 10
0.7222173193
 20
0.8534647876
 30
0.0
 11
0.8845319579
 21
1.0452766215
 31
0.0
  0
LINE
  5
96
  8
0
  6
CONTINUOUS
 62
     7
 10
1.3635291129
 20
0.1256517341
 30
0.0
 11
1.1133168587
 21
0.1025942113
 31
0.0
  0
LINE
  5
97
  8
0
  6
CONTINUOUS
 62
     7
 10
0.3780135276
 20
-1.0521909394
 30
0.0
 11
0.4629701293
 21
-1.2886654567
 31
0.0
  0
LINE
  5
98
  8
0
  6
CONTINUOUS
 62
     7
 10
-0.5729469627
 20
-1.2436767176
 30
0.0
 11
-0.4678092361
 21
-1.0154577877
 31
0.0
  0
LINE
  5
99
  8
0
  6
CONTINUOUS
 62
     7
 10
-1.100230847
 20
0.1987261518
 30
0.0
 11
-1.3475020872
 21
0.2433888352
 31
0.0
  0
ARC
  5
9A
  8
0
  6
CONTINUOUS
 62
     7
 10
-0.6885208997
 20
1.1901949297
 30
0.0
 40
0.1250000000000007
 50
120.0491337533
 51
215.2650423238
  0
ARC
  5
9B
  8
0
  6
CONTINUOUS
 62
     7
 10
-0.543446372
 20
0.9850335226
 30
0.0
 40
0.1250000000000003
 50
215.2650423238
 51
298.8856721153
  0
ARC
  5
9C
  8
0
  6
CONTINUOUS
 62
     7
 10
0.0
 20
0.0
 30
0.0
 40
1.000000000000002
 50
56.1408677936
 51
118.8856721153
  0
ARC
  5
9D
  8
0
  6
CONTINUOUS
 62
     7
 10
0.6267970553
 20
0.9342111386
 30
0.0
 40
0.1250000000000006
 50
236.1408677936
 51
319.7614975851
  0
ARC
  5
9E
  8
0
  6
CONTINUOUS
 62
     7
 10
0.7891116938
 20
1.1260229725
 30
0.0
 40
0.1249999999999998
 50
319.7614975851
 51
54.9774061556
  0
ARC
  5
9F
  8
0
  6
CONTINUOUS
 62
     7
 10
0.0
 20
0.0
 30
0.0
 40
1.500000000000004
 50
54.9774061556
 51
120.0491337533
  0
ARC
  5
A0
  8
0
  6
CONTINUOUS
 62
     7
 10
1.3749994944
 20
0.0011791253
 30
0.0
 40
0.1249999999999993
 50
0.0491337533
 51
95.2650423238
  0
ARC
  5
A1
  8
0
  6
CONTINUOUS
 62
     7
 10
1.1247872402
 20
-0.0218783975
 30
0.0
 40
0.1249999999999999
 50
95.2650423238
 51
178.8856721153
  0
ARC
  5
A2
  8
0
  6
CONTINUOUS
 62
     7
 10
0.0
 20
0.0
 30
0.0
 40
1.000000000000003
 50
296.1408677936
 51
358.8856721153
  0
ARC
  5
A3
  8
0
  6
CONTINUOUS
 62
     7
 10
0.4956520509
 20
-1.0099277422
 30
0.0
 40
0.1249999999999999
 50
116.1408677936
 51
199.7614975851
  0
ARC
  5
A4
  8
0
  6
CONTINUOUS
 62
     7
 10
0.5806086526
 20
-1.2464022595
 30
0.0
 40
0.1249999999999996
 50
199.7614975851
 51
294.9774061556
  0
ARC
  5
A5
  8
0
  6
CONTINUOUS
 62
     7
 10
0.0
 20
0.0
 30
0.0
 40
1.500000000000002
 50
294.9774061556
 51
0.0491337533
  0
ARC
  5
A6
  8
0
  6
CONTINUOUS
 62
     7
 10
-0.6864785948
 20
-1.191374055
 30
0.0
 40
0.1249999999999998
 50
240.0491337533
 51
335.2650423238
  0
ARC
  5
A7
  8
0
  6
CONTINUOUS
 62
     7
 10
-0.5813408682
 20
-0.9631551251
 30
0.0
 40
0.1249999999999998
 50
335.2650423238
 51
58.8856721153
  0
ARC
  5
A8
  8
0
  6
CONTINUOUS
 62
     7
 10
0.0
 20
0.0
 30
0.0
 40
1.000000000000003
 50
176.1408677936
 51
238.8856721153
  0
ARC
  5
A9
  8
0
  6
CONTINUOUS
 62
     7
 10
-1.1224491062
 20
0.0757166036
 30
0.0
 40
0.1250000000000004
 50
356.1408677936
 51
79.7614975851
  0
ARC
  5
AA
  8
0
  6
CONTINUOUS
 62
     7
 10
-1.3697203464
 20
0.120379287
 30
0.0
 40
0.125
 50
79.7614975851
 51
174.9774061556
  0
ARC
  5
AB
  8
0
  6
CONTINUOUS
 62
     7
 10
0.0
 20
0.0
 30
0.0
 40
1.500000000000004
 50
174.9774061556
 51
240.0491337533
  0
ENDSEC
  0
EOF
